{"title":"Step Father Sex With His Beautiful Daughter At Home[VPSR].mp4","uid":10751484,"size":130021954,"categoryP":"porn","categoryS":"other","magnet":"?xt=urn:btih:5970290f6b075d93653dd2cdbd450a5c4bd86d26&amp;dn=Step+Father+Sex+With+His+Beautiful+Daughter+At+Home%5BVPSR%5D.mp4&amp;tr=udp%3A%2F%2Ftracker.openbittorrent.com%3A80&amp;tr=udp%3A%2F%2Fopen.demonii.com%3A1337&amp;tr=udp%3A%2F%2Ftracker.coppersurfer.tk%3A6969&amp;tr=udp%3A%2F%2Fexodus.desync.com%3A6969","seeders":9,"leechers":1,"uploader":"vpsr","files":1,"time":1407875685,"description":"Step Father Sex With His Beautiful Daughter At Home[VPSR].mp4\n\n &lt;a href=&quot;\nhttp://s25.postimg.org/ic80s96zj/Step_Father_Sex.jpg&quot; rel=&quot;nofollow&quot; target=&quot;_NEW&quot;&gt;\nhttp://s25.postimg.org/ic80s96zj/Step_Father_Sex.jpg&lt;/a&gt;\n\n\n &lt;a href=&quot;\nhttp://s25.postimg.org/fjet886n3/Step_Father_Sex_With_His_Beautiful_Daughter_At_H.jpg&quot; rel=&quot;nofollow&quot; target=&quot;_NEW&quot;&gt;\nhttp://s25.postimg.org/fjet886n3/Step_Father_Sex_With_His_Beautiful_Daughter_At_H.jpg&lt;/a&gt;\n\n\n\nFILE INFO\n\n\nGeneral\nComplete name                            : Step Father Sex With His Beautiful Daughter At Home[VPSR].mp4\nFormat                                   : MPEG-4\nFormat profile                           : Base Media\nCodec ID                                 : isom\nFile size                                : 124 MiB\nDuration                                 : 16mn 13s\nOverall bit rate mode                    : Variable\nOverall bit rate                         : 1 068 Kbps\nWriting application                      : Lavf53.18.0\n\nVideo\nID                                       : 1\nFormat                                   : MPEG-4 Visual\nFormat profile                           : Simple@L1\nFormat settings, BVOP                    : No\nFormat settings, QPel                    : No\nFormat settings, GMC                     : No warppoints\nFormat settings, Matrix                  : Default (H.263)\nCodec ID                                 : 20\nDuration                                 : 16mn 13s\nBit rate mode                            : Variable\nBit rate                                 : 977 Kbps\nMaximum bit rate                         : 1 200 Kbps\nWidth                                    : 320 pixels\nHeight                                   : 240 pixels\nDisplay aspect ratio                     : 4:3\nFrame rate mode                          : Constant\nFrame rate                               : 29.970 fps\nColor space                              : YUV\nChroma subsampling                       : 4:2:0\nBit depth                                : 8 bits\nScan type                                : Progressive\nCompression mode                         : Lossy\nBits/(Pixel*Frame)                       : 0.424\nStream size                              : 113 MiB (91%)\nWriting library                          : Lavc53.26.0\n\nAudio\nID                                       : 2\nFormat                                   : AAC\nFormat/Info                              : Advanced Audio Codec\nFormat profile                           : LC\nCodec ID                                 : 40\nDuration                                 : 16mn 13s\nBit rate mode                            : Variable\nBit rate                                 : 86.3 Kbps\nMaximum bit rate                         : 192 Kbps\nChannel(s)                               : 2 channels\nChannel positions                        : Front: L R\nSampling rate                            : 44.1 KHz\nCompression mode                         : Lossy\nStream size                              : 10.0 MiB (8%)\n","torrent":{"xt":"urn:btih:5970290f6b075d93653dd2cdbd450a5c4bd86d26","amp;dn":"Step+Father+Sex+With+His+Beautiful+Daughter+At+Home%5BVPSR%5D.mp4","amp;tr":["udp%3A%2F%2Ftracker.openbittorrent.com%3A80","udp%3A%2F%2Fopen.demonii.com%3A1337","udp%3A%2F%2Ftracker.coppersurfer.tk%3A6969","udp%3A%2F%2Fexodus.desync.com%3A6969"],"infoHash":"5970290f6b075d93653dd2cdbd450a5c4bd86d26","infoHashBuffer":{"type":"Buffer","data":[89,112,41,15,107,7,93,147,101,61,210,205,189,69,10,92,75,216,109,38]},"announce":[],"urlList":[]}}